HIERARCHY
ROOT Hips
{
  OFFSET 0.0273292 -0.436096 0.279869
  CHANNELS 6 Xposition Yposition Zposition Zrotation Xrotation Yrotation
  JOINT LHipJoint
  {
    OFFSET 0 0 0
    CHANNELS 6 Xposition Yposition Zposition Zrotation Xrotation Yrotation
    JOINT LeftUpLeg
    {
      OFFSET 1.36306 -1.79463 0
      CHANNELS 6 Xposition Yposition Zposition Zrotation Xrotation Yrotation
      JOINT LeftLeg
      {
        OFFSET 2.44807 -6.72613 0.000295034
        CHANNELS 6 Xposition Yposition Zposition Zrotation Xrotation Yrotation
        JOINT LeftFoot
        {
          OFFSET 2.5622 -7.03959 3.59965e-05
          CHANNELS 6 Xposition Yposition Zposition Zrotation Xrotation Yrotation
          JOINT LeftToeBase
          {
            OFFSET 0.15764 -0.43311 2.32255
            CHANNELS 6 Xposition Yposition Zposition Zrotation Xrotation Yrotation
            End Site
            {
              OFFSET 0 0 0
            }
          }
        }
      }
    }
  }
  JOINT RHipJoint
  {
    OFFSET 0 0 0
    CHANNELS 6 Xposition Yposition Zposition Zrotation Xrotation Yrotation
    JOINT RightUpLeg
    {
      OFFSET -1.30552 -1.79463 0
      CHANNELS 6 Xposition Yposition Zposition Zrotation Xrotation Yrotation
      JOINT RightLeg
      {
        OFFSET -2.54234 -6.98562 -0.000396375
        CHANNELS 6 Xposition Yposition Zposition Zrotation Xrotation Yrotation
        JOINT RightFoot
        {
          OFFSET -2.56826 -7.05623 -4.47982e-05
          CHANNELS 6 Xposition Yposition Zposition Zrotation Xrotation Yrotation
          JOINT RightToeBase
          {
            OFFSET -0.16473 -0.45259 2.36315
            CHANNELS 6 Xposition Yposition Zposition Zrotation Xrotation Yrotation
            End Site
            {
              OFFSET 0 0 0
            }
          }
        }
      }
    }
  }
  JOINT LowerBack
  {
    OFFSET 0 0 0
    CHANNELS 6 Xposition Yposition Zposition Zrotation Xrotation Yrotation
    JOINT Spine
    {
      OFFSET 0.0282699 2.03559 0
      CHANNELS 6 Xposition Yposition Zposition Zrotation Xrotation Yrotation
      JOINT Spine1
      {
        OFFSET 0.05672 2.04885 -0.04275
        CHANNELS 6 Xposition Yposition Zposition Zrotation Xrotation Yrotation
        JOINT Neck
        {
          OFFSET 0 0 0
          CHANNELS 6 Xposition Yposition Zposition Zrotation Xrotation Yrotation
          JOINT Neck1
          {
            OFFSET -0.05417 1.74624 0.17202
            CHANNELS 6 Xposition Yposition Zposition Zrotation Xrotation Yrotation
            JOINT Head
            {
              OFFSET 0.10407 1.76136 -0.12397
              CHANNELS 6 Xposition Yposition Zposition Zrotation Xrotation Yrotation
              End Site
              {
                OFFSET 0 0 0
              }
            }
          }
        }
        JOINT LeftShoulder
        {
          OFFSET 0 0 0
          CHANNELS 6 Xposition Yposition Zposition Zrotation Xrotation Yrotation
          JOINT LeftArm
          {
            OFFSET 3.36241 1.20089 -0.311211
            CHANNELS 6 Xposition Yposition Zposition Zrotation Xrotation Yrotation
            JOINT LeftForeArm
            {
              OFFSET 4.983 0.000197398 0.000166057
              CHANNELS 6 Xposition Yposition Zposition Zrotation Xrotation Yrotation
              JOINT LeftHand
              {
                OFFSET 3.48356 0 1.87849e-05
                CHANNELS 6 Xposition Yposition Zposition Zrotation Xrotation Yrotation
                JOINT LeftFingerBase
                {
                  OFFSET 0 0 0
                  CHANNELS 6 Xposition Yposition Zposition Zrotation Xrotation Yrotation
                  JOINT LeftHandIndex1
                  {
                    OFFSET 0.71526 0 0
                    CHANNELS 6 Xposition Yposition Zposition Zrotation Xrotation Yrotation
                    End Site
                    {
                      OFFSET 0 0 0
                    }
                  }
                }
                JOINT LThumb
                {
                  OFFSET 0 0 0
                  CHANNELS 6 Xposition Yposition Zposition Zrotation Xrotation Yrotation
                  End Site
                  {
                    OFFSET 0 0 0
                  }
                }
              }
            }
          }
        }
        JOINT RightShoulder
        {
          OFFSET 0 0 0
          CHANNELS 6 Xposition Yposition Zposition Zrotation Xrotation Yrotation
          JOINT RightArm
          {
            OFFSET -3.1366 1.37405 -0.404651
            CHANNELS 6 Xposition Yposition Zposition Zrotation Xrotation Yrotation
            JOINT RightForeArm
            {
              OFFSET -5.2419 -5.8808e-05 -0.000165864
              CHANNELS 6 Xposition Yposition Zposition Zrotation Xrotation Yrotation
              JOINT RightHand
              {
                OFFSET -3.44417 0 -2.00002e-05
                CHANNELS 6 Xposition Yposition Zposition Zrotation Xrotation Yrotation
                JOINT RightFingerBase
                {
                  OFFSET 0 0 0
                  CHANNELS 6 Xposition Yposition Zposition Zrotation Xrotation Yrotation
                  JOINT RightHandIndex1
                  {
                    OFFSET -0.62253 0 0
                    CHANNELS 6 Xposition Yposition Zposition Zrotation Xrotation Yrotation
                    End Site
                    {
                      OFFSET 0 0 0
                    }
                  }
                }
                JOINT RThumb
                {
                  OFFSET 0 0 0
                  CHANNELS 6 Xposition Yposition Zposition Zrotation Xrotation Yrotation
                  End Site
                  {
                    OFFSET 0 0 0
                  }
                }
              }
            }
          }
        }
      }
    }
  }
}
MOTION
Frames:	4
Frame Time:	0.00833333
-0.339088 0.0558608 -2.15028 -0.514416 -7.05084 10.1143 0 0 0 4.41391e-32 1.59028e-15 -1.59028e-15 1.36306 -1.79463 -6.33043e-08 -122.322 -55.7334 -131.942 2.44779 -6.72624 -0.00604513 -124.584 53.8819 149.686 2.5622 -7.03959 5.16271e-05 -5.09599 3.05954 -3.10058 0.15764 -0.43311 2.32255 -1.76421e-15 0 -0 0 0 0 4.41391e-32 1.59028e-15 -1.59028e-15 -1.30552 -1.79463 -6.33043e-08 52.6405 -77.6412 50.9625 -2.54232 -6.98562 -0.00175459 120.089 57.8283 -144.212 -2.56826 -7.05624 -4.29638e-05 1.83063 -18.7558 7.54371 -0.16473 -0.45259 2.36315 3.55328e-15 0 -1.98785e-16 0 0 0 4.41391e-32 1.59028e-15 -1.59028e-15 0.0282698 2.03559 3.64247e-07 3.20412 16.8215 -9.66121 0.05672 2.04885 -0.04275 4.96962e-17 0 -0 0 0 0 2.48481e-17 1.59028e-15 -0 -0.05417 1.74624 0.17202 -4.14566 -34.0784 1.1127 0.10407 1.76136 -0.12397 -9.93923e-16 0 -1.19271e-15 0 0 0 2.48481e-17 1.59028e-15 -0 3.36241 1.20089 -0.311211 -95.2679 -6.38025 -158.148 4.983 0.000271862 -2.88234e-05 -0.00254649 -0.160531 -1.83708 3.48356 2.04579e-06 -1.20214e-05 -7.95141e-16 7.95139e-16 0.0001424 0 0 0 -7.95139e-16 0 3.18055e-15 0.71526 -4.44089e-16 0 -1.59028e-15 1.59028e-15 6.36111e-15 0 0 0 -7.95139e-16 0 3.18055e-15 0 0 0 2.48481e-17 1.59028e-15 -0 -3.1366 1.37405 -0.40465 145.709 21.0466 133.935 -5.2419 0.000278768 -7.18331e-06 -0.0119145 -0.25905 1.83679 -3.44417 2.90474e-06 -1.23071e-05 0 0 -0.000128901 0 0 0 -1.59028e-15 4.77083e-15 3.18055e-15 -0.62253 -4.44089e-16 1.77636e-15 3.18055e-15 -1.11319e-14 -3.18055e-15 0 0 0 -1.59028e-15 4.77083e-15 3.18055e-15 
-0.340403 0.00488329 -2.12624 -0.537428 -7.04204 10.5115 0 0 0 -0 0 1.59028e-15 1.36306 -1.79463 -6.33043e-08 -122.105 -55.0174 -131.883 2.44779 -6.72624 -0.00604513 -125.496 52.8581 150.841 2.5622 -7.03959 5.16271e-05 -5.20735 3.42322 -3.09178 0.15764 -0.43311 2.32255 1.73937e-15 -7.95139e-16 -3.97569e-16 0 0 0 -0 0 1.59028e-15 -1.30552 -1.79463 -6.33043e-08 50.4853 -78.2777 48.7744 -2.54232 -6.98562 -0.00175459 121.236 56.8913 -145.574 -2.56826 -7.05624 -4.29638e-05 1.81931 -18.662 7.54069 -0.16473 -0.45259 2.36315 7.45443e-16 -2.38542e-15 7.95139e-16 0 0 0 -0 0 1.59028e-15 0.0282698 2.03559 3.64247e-07 3.18068 16.7984 -10.312 0.05672 2.04885 -0.04275 1.98785e-16 0 -9.93923e-17 0 0 0 7.45443e-17 0 -0 -0.05417 1.74624 0.17202 -3.93504 -34.0781 1.08832 0.10407 1.76136 -0.12397 -0 -3.18055e-15 -0 0 0 0 7.45443e-17 0 -0 3.36241 1.20089 -0.311211 -95.3786 -6.29958 -158.863 4.983 0.000271862 -2.88234e-05 -0.00248794 -0.100162 -1.14688 3.48356 2.04579e-06 -1.20214e-05 1.84132e-21 -7.95139e-16 0.000132681 0 0 0 -1.59028e-15 -7.95139e-16 -3.18055e-15 0.71526 0 -8.88178e-16 -7.95139e-16 0 6.36111e-15 0 0 0 -1.59028e-15 -7.95139e-16 -3.18055e-15 0 0 0 7.45443e-17 0 -0 -3.1366 1.37405 -0.40465 97.5473 0.78094 158.03 -5.2419 0.000278768 -7.18331e-06 0.00258073 -0.101262 1.14658 -3.44417 2.90474e-06 -1.23071e-05 1.61513e-15 9.93923e-17 -0.000120861 0 0 0 1.6027e-15 -8.19987e-16 -0 -0.62253 0 -8.88178e-16 8.32411e-16 -5.46658e-16 -0 0 0 0 1.6027e-15 -8.19987e-16 -0 
-0.336564 0.244545 -2.05583 -0.561525 -7.03249 10.9264 0 0 0 -3.97569e-16 0 -0 1.36306 -1.79463 -6.33043e-08 -115.304 -57.5195 -124.083 2.44779 -6.72624 -0.00604513 -123.751 54.6643 148.632 2.5622 -7.03959 5.16271e-05 -5.08331 2.37514 -3.24477 0.15764 -0.43311 2.32255 -2.18663e-15 1.59028e-15 3.97569e-16 0 0 0 -3.97569e-16 0 -0 -1.30552 -1.79463 -6.33043e-08 36.1038 -76.0339 33.1718 -2.54232 -6.98562 -0.00175459 117.891 59.7884 -141.492 -2.56826 -7.05624 -4.29638e-05 1.71414 -17.4972 7.10327 -0.16473 -0.45259 2.36315 -1.49089e-15 0 -3.97569e-16 0 0 0 -3.97569e-16 0 -0 0.0282698 2.03559 3.64247e-07 3.15703 16.7733 -10.9627 0.05672 2.04885 -0.04275 1.11816e-16 0 -0 0 0 0 0 0 -4.96962e-17 -0.05417 1.74624 0.17202 -3.76777 -34.0779 1.04978 0.10407 1.76136 -0.12397 2.20695e-32 -3.18055e-15 3.97569e-16 0 0 0 0 0 -4.96962e-17 3.36241 1.20089 -0.311211 -95.3643 -6.32946 -158.427 4.983 0.000271862 -2.88234e-05 0.0283648 -0.232131 -1.38846 3.48356 2.04579e-06 -1.20214e-05 -4.77084e-15 2.38542e-15 0.000138584 0 0 0 -1.59028e-15 -2.38542e-15 -6.36111e-15 0.71526 -4.44089e-16 0 -2.38542e-15 -7.95139e-16 -3.18055e-15 0 0 0 -1.59028e-15 -2.38542e-15 -6.36111e-15 0 0 0 0 0 -4.96962e-17 -3.1366 1.37405 -0.40465 97.4405 0.355362 157.955 -5.2419 0.000278768 -7.18331e-06 0.0506097 0.0846505 1.40743 -3.44417 2.90474e-06 -1.23071e-05 -1.54058e-15 -9.93923e-17 -0.00013383 0 0 0 2.98177e-16 -9.93923e-16 6.36111e-15 -0.62253 0 8.88178e-16 -1.2424e-15 -1.19271e-15 9.54166e-15 0 0 0 2.98177e-16 -9.93923e-16 6.36111e-15 
-0.326277 0.821262 -1.91986 -0.587122 -7.02199 11.3656 0 0 0 -1.98785e-16 1.59028e-15 -0 1.36306 -1.79463 -6.33043e-08 -95.1034 -61.3276 -102.013 2.44779 -6.72624 -0.00604513 -118.427 58.929 142.226 2.5622 -7.03959 5.16271e-05 -4.79537 0.0704783 -3.58458 0.15764 -0.43311 2.32255 4.77083e-15 0 -0 0 0 0 -1.98785e-16 1.59028e-15 -0 -1.30552 -1.79463 -6.33043e-08 22.0316 -67.6875 16.1615 -2.54232 -6.98562 -0.00175459 105.414 66.033 -127.291 -2.56826 -7.05624 -4.29638e-05 1.50074 -14.7237 6.01034 -0.16473 -0.45259 2.36315 1.19271e-15 1.59028e-15 -0 0 0 0 -1.98785e-16 1.59028e-15 -0 0.0282698 2.03559 3.64247e-07 3.13313 16.7461 -11.6132 0.05672 2.04885 -0.04275 1.92573e-16 0 -0 0 0 0 9.31803e-17 -1.59028e-15 -0 -0.05417 1.74624 0.17202 -3.60051 -34.0777 1.01123 0.10407 1.76136 -0.12397 -1.2921e-15 -3.18055e-15 -0 0 0 0 9.31803e-17 -1.59028e-15 -0 3.36241 1.20089 -0.311211 -95.3227 -6.41001 -157.301 4.983 0.000271862 -2.88234e-05 0.105893 -0.564536 -2.02958 3.48356 2.04579e-06 -1.20214e-05 -1.59028e-15 -7.95139e-16 0.000151571 0 0 0 0 1.59028e-15 -0 0.71526 -4.44089e-16 0 7.95139e-16 -1.59028e-15 -6.36111e-15 0 0 0 0 1.59028e-15 -0 0 0 0 9.31803e-17 -1.59028e-15 -0 -3.1366 1.37405 -0.40465 97.4949 0.136523 157.419 -5.2419 0.000278768 -7.18331e-06 0.130107 0.290307 2.09656 -3.44417 2.90474e-06 -1.23071e-05 6.95746e-16 0 -0.000162363 0 0 0 4.96962e-16 5.96354e-16 -3.18055e-15 -0.62253 -4.44089e-16 8.88178e-16 -9.93923e-17 -1.98785e-16 -3.18055e-15 0 0 0 4.96962e-16 5.96354e-16 -3.18055e-15 
